<?xml version="1.0" encoding="UTF-8" standalone="no"?>
<!DOCTYPE svg PUBLIC "-//W3C//DTD SVG 1.1//EN"
 "http://www.w3.org/Graphics/SVG/1.1/DTD/svg11.dtd">
<!-- Generated by graphviz version 2.43.0 (0)
 -->
<!-- Title: automata&#45;cxx Pages: 1 -->
<svg width="1098pt" height="275pt"
 viewBox="0.00 0.00 1098.31 275.00" xmlns="http://www.w3.org/2000/svg" xmlns:xlink="http://www.w3.org/1999/xlink">
<g id="graph0" class="graph" transform="scale(1 1) rotate(0) translate(4 271)">
<title>automata&#45;cxx</title>
<polygon fill="white" stroke="transparent" points="-4,4 -4,-271 1094.31,-271 1094.31,4 -4,4"/>
<g id="clust1" class="cluster">
<title>clusterLegend</title>
<polygon fill="none" stroke="black" points="8,-8 8,-259 613,-259 613,-8 8,-8"/>
<text text-anchor="middle" x="310.5" y="-243.8" font-family="Times-Roman" font-size="14.00">Legend</text>
</g>
<!-- legendNode0 -->
<g id="node1" class="node">
<title>legendNode0</title>
<polygon fill="none" stroke="black" points="325.03,-192.05 328.36,-192.15 331.65,-192.3 334.89,-192.49 338.08,-192.74 341.19,-193.03 344.22,-193.36 347.14,-193.75 349.96,-194.18 352.66,-194.65 355.23,-195.16 357.66,-195.71 359.95,-196.31 362.08,-196.94 364.05,-197.61 365.86,-198.31 367.5,-199.04 368.96,-199.8 370.25,-200.59 371.36,-201.41 372.29,-202.25 373.05,-203.11 373.63,-203.99 374.03,-204.89 374.26,-205.8 374.32,-206.72 374.22,-207.65 373.96,-208.59 373.54,-209.53 372.97,-210.47 372.26,-211.41 371.42,-212.35 370.44,-213.28 369.35,-214.2 368.13,-215.11 366.81,-216.01 365.39,-216.89 363.88,-217.75 362.28,-218.59 360.6,-219.41 358.85,-220.2 357.04,-220.96 355.16,-221.69 353.24,-222.39 351.27,-223.06 349.25,-223.69 347.2,-224.29 345.12,-224.84 343.01,-225.35 340.88,-225.82 338.73,-226.25 336.56,-226.64 334.38,-226.97 332.18,-227.26 329.98,-227.51 327.77,-227.7 325.55,-227.85 323.33,-227.95 321.11,-228 318.89,-228 316.67,-227.95 314.45,-227.85 312.23,-227.7 310.02,-227.51 307.82,-227.26 305.62,-226.97 303.44,-226.64 301.27,-226.25 299.12,-225.82 296.99,-225.35 294.88,-224.84 292.8,-224.29 290.75,-223.69 288.73,-223.06 286.76,-222.39 284.84,-221.69 282.96,-220.96 281.15,-220.2 279.4,-219.41 277.72,-218.59 276.12,-217.75 274.61,-216.89 273.19,-216.01 271.87,-215.11 270.65,-214.2 269.56,-213.28 268.58,-212.35 267.74,-211.41 267.03,-210.47 266.46,-209.53 266.04,-208.59 265.78,-207.65 265.68,-206.72 265.74,-205.8 265.97,-204.89 266.37,-203.99 266.95,-203.11 267.71,-202.25 268.64,-201.41 269.75,-200.59 271.04,-199.8 272.5,-199.04 274.14,-198.31 275.95,-197.61 277.92,-196.94 280.05,-196.31 282.34,-195.71 284.77,-195.16 287.34,-194.65 290.04,-194.18 292.86,-193.75 295.78,-193.36 298.81,-193.03 301.92,-192.74 305.11,-192.49 308.35,-192.3 311.64,-192.15 314.97,-192.05 318.32,-192 321.68,-192 325.03,-192.05"/>
<text text-anchor="middle" x="320" y="-206.9" font-family="Times-Roman" font-size="12.00">Executable</text>
</g>
<!-- legendNode1 -->
<g id="node2" class="node">
<title>legendNode1</title>
<polygon fill="none" stroke="black" points="143.93,-121.54 143.93,-136.46 106.48,-147 53.52,-147 16.07,-136.46 16.07,-121.54 53.52,-111 106.48,-111 143.93,-121.54"/>
<text text-anchor="middle" x="80" y="-125.9" font-family="Times-Roman" font-size="12.00">Static Library</text>
</g>
<!-- legendNode0&#45;&gt;legendNode1 -->
<g id="edge1" class="edge">
<title>legendNode0&#45;&gt;legendNode1</title>
<path fill="none" stroke="black" d="M279.78,-196.21C245.92,-185.39 196.22,-169.39 153,-155 145.05,-152.35 136.63,-149.51 128.44,-146.72"/>
<polygon fill="black" stroke="black" points="129.57,-143.41 118.98,-143.49 127.31,-150.03 129.57,-143.41"/>
</g>
<!-- legendNode2 -->
<g id="node3" class="node">
<title>legendNode2</title>
<polygon fill="none" stroke="black" points="304.1,-121.54 304.1,-136.46 263.62,-147 206.38,-147 165.9,-136.46 165.9,-121.54 206.38,-111 263.62,-111 304.1,-121.54"/>
<polygon fill="none" stroke="black" points="308.09,-118.45 308.09,-139.55 264.13,-151 205.87,-151 161.91,-139.55 161.91,-118.45 205.87,-107 264.13,-107 308.09,-118.45"/>
<text text-anchor="middle" x="235" y="-125.9" font-family="Times-Roman" font-size="12.00">Shared Library</text>
</g>
<!-- legendNode0&#45;&gt;legendNode2 -->
<g id="edge2" class="edge">
<title>legendNode0&#45;&gt;legendNode2</title>
<path fill="none" stroke="black" d="M302.39,-192.63C291.68,-182.68 277.71,-169.69 265.27,-158.13"/>
<polygon fill="black" stroke="black" points="267.47,-155.4 257.76,-151.16 262.7,-160.53 267.47,-155.4"/>
</g>
<!-- legendNode3 -->
<g id="node4" class="node">
<title>legendNode3</title>
<polygon fill="none" stroke="black" points="475.74,-121.54 475.74,-136.46 434.3,-147 375.7,-147 334.26,-136.46 334.26,-121.54 375.7,-111 434.3,-111 475.74,-121.54"/>
<polygon fill="none" stroke="black" points="479.75,-118.44 479.75,-139.56 434.81,-151 375.19,-151 330.25,-139.56 330.25,-118.44 375.19,-107 434.81,-107 479.75,-118.44"/>
<polygon fill="none" stroke="black" points="483.76,-115.33 483.76,-142.67 435.31,-155 374.69,-155 326.24,-142.67 326.24,-115.33 374.69,-103 435.31,-103 483.76,-115.33"/>
<text text-anchor="middle" x="405" y="-125.9" font-family="Times-Roman" font-size="12.00">Module Library</text>
</g>
<!-- legendNode0&#45;&gt;legendNode3 -->
<!-- legendNode7 -->
<g id="node8" class="node">
<title>legendNode7</title>
<polygon fill="none" stroke="black" points="604.5,-147 501.5,-147 501.5,-111 604.5,-111 604.5,-147"/>
<text text-anchor="middle" x="553" y="-125.9" font-family="Times-Roman" font-size="12.00">Custom Target</text>
</g>
<!-- legendNode0&#45;&gt;legendNode7 -->
<!-- legendNode4 -->
<g id="node5" class="node">
<title>legendNode4</title>
<polygon fill="none" stroke="black" points="194.05,-39.56 105,-52 15.95,-39.56 49.96,-19.44 160.04,-19.44 194.05,-39.56"/>
<text text-anchor="middle" x="105" y="-30.9" font-family="Times-Roman" font-size="12.00">Interface Library</text>
</g>
<!-- legendNode1&#45;&gt;legendNode4 -->
<g id="edge4" class="edge">
<title>legendNode1&#45;&gt;legendNode4</title>
<path fill="none" stroke="black" stroke-dasharray="5,2" d="M84.59,-110.94C88.31,-97.09 93.62,-77.32 97.9,-61.42"/>
<polygon fill="black" stroke="black" points="101.31,-62.2 100.53,-51.64 94.55,-60.39 101.31,-62.2"/>
<text text-anchor="middle" x="127.5" y="-73.8" font-family="Times-Roman" font-size="14.00">Interface</text>
</g>
<!-- legendNode5 -->
<g id="node6" class="node">
<title>legendNode5</title>
<polygon fill="none" stroke="black" points="355.59,-34 319.79,-52 248.21,-52 212.41,-34 248.21,-16 319.79,-16 355.59,-34"/>
<text text-anchor="middle" x="284" y="-30.9" font-family="Times-Roman" font-size="12.00">Object Library</text>
</g>
<!-- legendNode2&#45;&gt;legendNode5 -->
<g id="edge5" class="edge">
<title>legendNode2&#45;&gt;legendNode5</title>
<path fill="none" stroke="black" stroke-dasharray="1,5" d="M246.12,-106.9C253.25,-93.36 262.57,-75.67 270.18,-61.23"/>
<polygon fill="black" stroke="black" points="273.33,-62.76 274.89,-52.28 267.14,-59.5 273.33,-62.76"/>
<text text-anchor="middle" x="290.5" y="-73.8" font-family="Times-Roman" font-size="14.00">Private</text>
</g>
<!-- legendNode6 -->
<g id="node7" class="node">
<title>legendNode6</title>
<polygon fill="none" stroke="black" points="534.75,-29.99 518.75,-45.22 454,-52 389.25,-45.22 373.25,-29.99 418.06,-17.78 489.94,-17.78 534.75,-29.99"/>
<text text-anchor="middle" x="454" y="-30.9" font-family="Times-Roman" font-size="12.00">Unknown Library</text>
</g>
<!-- legendNode3&#45;&gt;legendNode6 -->
<g id="edge6" class="edge">
<title>legendNode3&#45;&gt;legendNode6</title>
<path fill="none" stroke="black" d="M418.39,-102.59C425.32,-89.43 433.76,-73.42 440.68,-60.28"/>
<polygon fill="black" stroke="black" points="443.84,-61.78 445.41,-51.31 437.65,-58.52 443.84,-61.78"/>
</g>
<!-- node0 -->
<g id="node9" class="node">
<title>node0</title>
<polygon fill="none" stroke="black" points="898.57,-192.05 901.59,-192.15 904.58,-192.3 907.53,-192.49 910.42,-192.74 913.24,-193.03 915.99,-193.36 918.65,-193.75 921.21,-194.18 923.66,-194.65 925.99,-195.16 928.2,-195.71 930.28,-196.31 932.21,-196.94 934.01,-197.61 935.65,-198.31 937.13,-199.04 938.46,-199.8 939.63,-200.59 940.64,-201.41 941.49,-202.25 942.18,-203.11 942.7,-203.99 943.07,-204.89 943.28,-205.8 943.33,-206.72 943.24,-207.65 943,-208.59 942.62,-209.53 942.11,-210.47 941.46,-211.41 940.7,-212.35 939.81,-213.28 938.81,-214.2 937.71,-215.11 936.51,-216.01 935.22,-216.89 933.85,-217.75 932.4,-218.59 930.87,-219.41 929.28,-220.2 927.64,-220.96 925.93,-221.69 924.19,-222.39 922.39,-223.06 920.57,-223.69 918.7,-224.29 916.81,-224.84 914.9,-225.35 912.96,-225.82 911.01,-226.25 909.04,-226.64 907.06,-226.97 905.06,-227.26 903.06,-227.51 901.05,-227.7 899.04,-227.85 897.03,-227.95 895.01,-228 892.99,-228 890.97,-227.95 888.96,-227.85 886.95,-227.7 884.94,-227.51 882.94,-227.26 880.94,-226.97 878.96,-226.64 876.99,-226.25 875.04,-225.82 873.1,-225.35 871.19,-224.84 869.3,-224.29 867.43,-223.69 865.61,-223.06 863.81,-222.39 862.07,-221.69 860.36,-220.96 858.72,-220.2 857.13,-219.41 855.6,-218.59 854.15,-217.75 852.78,-216.89 851.49,-216.01 850.29,-215.11 849.19,-214.2 848.19,-213.28 847.3,-212.35 846.54,-211.41 845.89,-210.47 845.38,-209.53 845,-208.59 844.76,-207.65 844.67,-206.72 844.72,-205.8 844.93,-204.89 845.3,-203.99 845.82,-203.11 846.51,-202.25 847.36,-201.41 848.37,-200.59 849.54,-199.8 850.87,-199.04 852.35,-198.31 853.99,-197.61 855.79,-196.94 857.72,-196.31 859.8,-195.71 862.01,-195.16 864.34,-194.65 866.79,-194.18 869.35,-193.75 872.01,-193.36 874.76,-193.03 877.58,-192.74 880.47,-192.49 883.42,-192.3 886.41,-192.15 889.43,-192.05 892.48,-192 895.52,-192 898.57,-192.05"/>
<text text-anchor="middle" x="894" y="-206.9" font-family="Times-Roman" font-size="12.00">automata</text>
</g>
<!-- node1 -->
<g id="node10" class="node">
<title>node1</title>
<polygon fill="none" stroke="black" points="731.77,-121.54 731.77,-136.46 699.69,-147 654.31,-147 622.23,-136.46 622.23,-121.54 654.31,-111 699.69,-111 731.77,-121.54"/>
<text text-anchor="middle" x="677" y="-125.9" font-family="Times-Roman" font-size="12.00">conversion</text>
</g>
<!-- node0&#45;&gt;node1 -->
<g id="edge8" class="edge">
<title>node0&#45;&gt;node1</title>
<path fill="none" stroke="black" stroke-dasharray="1,5" d="M857.09,-196.36C826.02,-185.62 780.47,-169.67 741,-155 734.24,-152.49 727.09,-149.76 720.13,-147.07"/>
<polygon fill="black" stroke="black" points="721.39,-143.81 710.8,-143.44 718.85,-150.33 721.39,-143.81"/>
</g>
<!-- node2 -->
<g id="node11" class="node">
<title>node2</title>
<polygon fill="none" stroke="black" points="844.12,-121.54 844.12,-136.46 816.52,-147 777.48,-147 749.88,-136.46 749.88,-121.54 777.48,-111 816.52,-111 844.12,-121.54"/>
<text text-anchor="middle" x="797" y="-125.9" font-family="Times-Roman" font-size="12.00">evolution</text>
</g>
<!-- node0&#45;&gt;node2 -->
<g id="edge9" class="edge">
<title>node0&#45;&gt;node2</title>
<path fill="none" stroke="black" stroke-dasharray="1,5" d="M874.37,-193.01C860.32,-181.57 841.19,-165.99 825.47,-153.19"/>
<polygon fill="black" stroke="black" points="827.57,-150.38 817.6,-146.78 823.15,-155.81 827.57,-150.38"/>
</g>
<!-- node3 -->
<g id="node12" class="node">
<title>node3</title>
<polygon fill="none" stroke="black" points="925.97,-121.54 925.97,-136.46 907.24,-147 880.76,-147 862.03,-136.46 862.03,-121.54 880.76,-111 907.24,-111 925.97,-121.54"/>
<text text-anchor="middle" x="894" y="-125.9" font-family="Times-Roman" font-size="12.00">initial</text>
</g>
<!-- node0&#45;&gt;node3 -->
<g id="edge10" class="edge">
<title>node0&#45;&gt;node3</title>
<path fill="none" stroke="black" stroke-dasharray="1,5" d="M894,-191.86C894,-181.71 894,-168.63 894,-157.12"/>
<polygon fill="black" stroke="black" points="897.5,-157.11 894,-147.11 890.5,-157.11 897.5,-157.11"/>
</g>
<!-- node4 -->
<g id="node13" class="node">
<title>node4</title>
<polygon fill="none" stroke="black" points="998,-121.54 998,-136.46 982.18,-147 959.82,-147 944,-136.46 944,-121.54 959.82,-111 982.18,-111 998,-121.54"/>
<text text-anchor="middle" x="971" y="-125.9" font-family="Times-Roman" font-size="12.00">io</text>
</g>
<!-- node0&#45;&gt;node4 -->
<g id="edge11" class="edge">
<title>node0&#45;&gt;node4</title>
<path fill="none" stroke="black" stroke-dasharray="1,5" d="M909.95,-192.63C921.26,-181.03 936.58,-165.32 949.04,-152.53"/>
<polygon fill="black" stroke="black" points="951.89,-154.62 956.37,-145.01 946.88,-149.73 951.89,-154.62"/>
</g>
<!-- node5 -->
<g id="node14" class="node">
<title>node5</title>
<polygon fill="none" stroke="black" points="1090.13,-121.54 1090.13,-136.46 1068.38,-147 1037.62,-147 1015.87,-136.46 1015.87,-121.54 1037.62,-111 1068.38,-111 1090.13,-121.54"/>
<text text-anchor="middle" x="1053" y="-125.9" font-family="Times-Roman" font-size="12.00">parser</text>
</g>
<!-- node0&#45;&gt;node5 -->
<g id="edge12" class="edge">
<title>node0&#45;&gt;node5</title>
<path fill="none" stroke="black" stroke-dasharray="1,5" d="M924.91,-194.76C947.74,-184.11 979.5,-169.03 1007,-155 1011.33,-152.79 1015.85,-150.42 1020.3,-148.04"/>
<polygon fill="black" stroke="black" points="1022.11,-151.04 1029.25,-143.21 1018.79,-144.88 1022.11,-151.04"/>
</g>
</g>
</svg>
